<svg xmlns="http://www.w3.org/2000/svg" version="1.1" xmlns:xlink="http://www.w3.org/1999/xlink" xmlns:svgjs="http://svgjs.dev/svgjs" width="1000" height="1000" viewBox="0 0 1000 1000"><rect width="1000" height="1000" fill="#ffffff"></rect><g transform="matrix(0.7,0,0,0.7,149.57575757575756,411.9715911994156)"><svg viewBox="0 0 396 100" data-background-color="#ffffff" preserveAspectRatio="xMidYMid meet" height="252" width="1000" xmlns="http://www.w3.org/2000/svg" xmlns:xlink="http://www.w3.org/1999/xlink"><g id="tight-bounds" transform="matrix(1,0,0,1,0.2400000000000091,-0.09727392257121892)"><svg viewBox="0 0 395.52 100.19454784514244" height="100.19454784514244" width="395.52"><g><svg viewBox="0 0 395.52 100.19454784514244" height="100.19454784514244" width="395.52"><g><svg viewBox="0 0 395.52 100.19454784514244" height="100.19454784514244" width="395.52"><g id="textblocktransform"><svg viewBox="0 0 395.52 100.19454784514244" height="100.19454784514244" width="395.52" id="textblock"><g><svg viewBox="0 0 395.52 100.19454784514244" height="100.19454784514244" width="395.52"><g transform="matrix(1,0,0,1,0,0)"><svg width="395.52" viewBox="2 -41.33000183105469 167.10000610351562 42.33000183105469" height="100.19454784514244" data-palette-color="#bb84e8"><path d="M7.13-0.59L7.13-0.59Q5.47 1 3.93 1L3.93 1Q3.08 1 2.76 0.37L2.76 0.37Q3.32-0.2 3.32-0.76 3.32-1.32 3.15-1.61L3.15-1.61 2.83-2.17 3.22-1.44Q2.64-1.71 2.32-2.34 2-2.98 2-3.89 2-4.81 3.03-5.98L3.03-5.98Q2.54-6.67 2.54-7.5 2.54-8.33 2.82-8.87 3.1-9.42 3.54-9.86L3.54-9.86Q4.52-10.79 5.62-10.79L5.62-10.79Q6.35-10.79 6.67-10.28L6.67-10.28Q6.01-9.57 6.01-8.04 6.01-6.52 6.53-5.44 7.06-4.37 7.96-3.61L7.96-3.61Q9.86-2 12.65-2L12.65-2Q15.75-2 16.94-4.27L16.94-4.27Q17.29-4.96 17.29-5.65 17.29-6.35 16.97-6.9 16.65-7.45 16.14-7.96L16.14-7.96Q15.28-8.79 13.53-9.86L13.53-9.86Q11.84-11.06 9.55-11.06L9.55-11.06Q8.06-11.06 7.54-10.82L7.54-10.82Q7.86-11.55 7.86-12.28 7.86-13.01 6.88-13.88 5.91-14.75 5.14-15.63 4.37-16.5 3.91-17.38L3.91-17.38Q2.98-19.04 2.98-20.9 2.98-22.75 3.75-24.18 4.52-25.61 5.91-26.64L5.91-26.64Q8.81-28.81 13.35-28.81L13.35-28.81Q15.55-28.81 16.37-28.61 17.19-28.42 17.68-28.25L17.68-28.25Q18.33-28 19.29-28 20.24-28 20.62-28.42 21-28.83 21-29.19 21-29.54 20.92-29.74L20.92-29.74Q21.07-29.79 21.36-29.79 21.66-29.79 22.03-29.61 22.41-29.44 22.71-29.15L22.71-29.15Q23.29-28.49 23.29-27.75 23.29-27 23-26.61L23-26.61Q23.68-25.98 23.68-24.8 23.68-23.63 22.71-22.83L22.71-22.83Q22.92-22.39 22.92-21.75 22.92-21.12 22.24-20.53 21.56-19.95 20.95-19.95L20.95-19.95Q19.9-19.95 19.53-20.21L19.53-20.21Q19.85-21 19.85-21.91 19.85-22.83 19.36-23.66 18.87-24.49 18.12-25L18.12-25Q16.7-25.98 14.75-25.98L14.75-25.98Q12.28-25.98 11.43-24.41L11.43-24.41Q11.16-23.93 11.16-23.35 11.16-22.78 11.32-22.3 11.47-21.83 11.84-21.34L11.84-21.34Q12.55-20.39 13.84-19.53L13.84-19.53Q15.53-18.43 16.19-18.43L16.19-18.43Q17.6-18.43 18.65-19.12L18.65-19.12Q18.36-17.94 18.36-17.48L18.36-17.48Q18.36-16.77 19.48-15.84L19.48-15.84Q22.63-13.67 23.78-11.87L23.78-11.87Q24.88-10.11 24.88-7.96 24.88-5.81 23.93-4.28 22.97-2.76 21.34-1.66L21.34-1.66Q17.94 0.61 13.11 0.61L13.11 0.61Q9.81 0.61 7.13-0.59ZM6.27-22.95L6.27-22.95Q5.57-22.61 5.57-21.06 5.57-19.51 6.57-18.1 7.57-16.7 9.74-14.94L9.74-14.94Q10.25-14.55 10.25-14.18L10.25-14.18Q10.25-13.62 10.16-13.28L10.16-13.28Q10.45-13.35 11.18-13.43L11.18-13.43Q12.96-13.6 15.6-11.77L15.6-11.77Q19.8-9.18 19.8-6.32L19.8-6.32Q19.8-5.25 19.51-4.71L19.51-4.71Q20.39-4.88 20.85-6.2L20.85-6.2Q20.97-6.59 20.97-7.01L20.97-7.01Q20.97-8.98 18.84-11.02 16.7-13.06 12.7-14.97L12.7-14.97Q6.05-18.33 6.27-22.95ZM45.11-2.32L45.11-2.32Q42.89 0.61 38.45 0.61L38.45 0.61Q33.03 0.61 30.32-2.64L30.32-2.64Q29.15-4.03 28.71-5.74L28.71-5.74Q28.46-6.76 27.85-7.31 27.24-7.86 26.34-8.3L26.34-8.3Q28.1-9.11 28.85-11.33L28.85-11.33Q29.66-13.67 31.54-14.72L31.54-14.72Q33.57-15.82 36.01-15.88 38.45-15.94 39.62-16.04 40.79-16.14 41.7-16.36L41.7-16.36Q43.38-16.75 44.33-17.8L44.33-17.8 44.33-21.46Q44.33-23.88 43.34-25 42.36-26.12 40.34-26.12 38.33-26.12 37.36-25.38 36.4-24.63 36.4-23.39L36.4-23.39Q36.4-21.48 38.35-21.53L38.35-21.53Q37.96-19.63 36.3-19.63L36.3-19.63Q35.81-19.63 35.35-19.8L35.35-19.8 35.35-19.73Q35.35-19.09 35.94-18.92L35.94-18.92Q35.32-17.99 33.88-18.02 32.44-18.04 31.64-19.56L31.64-19.56Q31.27-19.46 30.8-19.46 30.32-19.46 29.75-19.78 29.17-20.09 28.83-20.65L28.83-20.65Q30.05-21.39 30.32-22.92L30.32-22.92Q30.61-24.8 33.32-26.73L33.32-26.73Q36.59-29.05 41.67-29.05L41.67-29.05Q50.1-29.05 51.95-23.88L51.95-23.88Q52.56-22.14 52.56-19.78L52.56-19.78 52.56-17.8Q52.56-16.6 53.16-15.84 53.76-15.09 55.2-14.6L55.2-14.6Q53.66-13.89 53.22-13.33L53.22-13.33Q52.56-12.48 52.56-11.38L52.56-11.38 52.56-4.05Q53.27-2.22 54.59-2.22L54.59-2.22Q55.42-2.22 55.95-2.64L55.95-2.64Q56.3-2.17 56.3-1.48 56.3-0.78 55.6-0.15 54.9 0.49 53.51 0.49 52.12 0.49 50.93-0.29L50.93-0.29Q49.88 0.49 49.06 0.49 48.24 0.49 47.64 0.33 47.04 0.17 46.53-0.17L46.53-0.17Q45.38-0.93 45.11-2.32ZM46.65-22.73L46.65-6.47Q48.07-7.03 48.14-11.87L48.14-11.87Q48.14-12.89 48.14-14.21 48.14-15.53 48.13-16.47 48.12-17.41 48.09-18.26L48.09-18.26Q48-21.34 47.53-21.94 47.07-22.53 46.65-22.73L46.65-22.73ZM37.64-8.2L37.64-8.2Q37.64-7.18 37.86-6.2 38.08-5.22 38.52-4.49L38.52-4.49Q39.5-2.95 41.28-2.95L41.28-2.95Q42.62-2.95 43.5-4.05L43.5-4.05Q44.33-5.13 44.33-6.81L44.33-6.81 44.33-14.77Q42.77-13.87 40.33-13.53L40.33-13.53Q37.64-13.11 37.64-8.2ZM33.98-2.71L33.98-2.71Q34.23-2.88 34.23-3.15L34.23-3.15Q34.23-3.52 33.88-4.17L33.88-4.17Q32.66-6.42 32.66-7.86 32.66-9.3 32.77-9.94 32.88-10.57 33.07-11.02 33.25-11.47 33.48-11.82 33.71-12.16 33.88-12.43L33.88-12.43Q34.2-12.99 34.2-13.2 34.2-13.4 33.98-13.55L33.98-13.55Q32.98-13.09 32.52-12.45L32.52-12.45Q31.69-11.33 31.3-9.55L31.3-9.55Q31.2-9.03 29.59-8.3L29.59-8.3Q31.15-7.59 31.3-7.06L31.3-7.06Q32.13-4.15 33.98-2.71ZM79.73-7.37L79.73-7.37Q80.27-8.4 81.71-8.4L81.71-8.4Q82.69-8.4 83.22-7.59L83.22-7.59Q83.66-6.96 83.66-6.04 83.66-5.13 83.21-4.2 82.76-3.27 82-2.51 81.25-1.76 80.26-1.17 79.27-0.59 78.14-0.2L78.14-0.2Q75.87 0.61 73.41 0.61 70.94 0.61 68.75-0.26 66.55-1.12 64.96-2.69L64.96-2.69Q61.76-5.83 61.1-11.13L61.1-11.13Q60.93-12.33 60.54-12.84L60.54-12.84Q59.81-13.75 58.12-14.58L58.12-14.58Q60.71-15.75 61.1-18.8L61.1-18.8Q61.74-23.46 65.25-26.17L65.25-26.17Q68.62-28.81 73.46-28.81L73.46-28.81Q77.63-28.81 80.49-26.27L80.49-26.27Q83.2-23.88 83.2-20.73L83.2-20.73Q83.2-18.95 84.44-18.46L84.44-18.46Q83.71-17.26 82.39-17.26L82.39-17.26Q81.93-17.26 81.54-17.36L81.54-17.36Q80.68-16.11 79.07-15.67L79.07-15.67Q78.56-15.55 78.1-15.55 77.63-15.55 77-15.73 76.36-15.92 76.12-16.24L76.12-16.24Q76.83-16.53 76.95-17.7L76.95-17.7Q76.8-17.68 76.68-17.68L76.68-17.68 76.48-17.68Q74.82-17.68 74.43-19.58L74.43-19.58Q76.24-19.58 77.07-20.97L77.07-20.97Q77.36-21.46 77.36-22.17L77.36-22.17Q77.36-23.73 76.36-24.62 75.36-25.51 73.58-25.51L73.58-25.51Q69.45-25.51 69.45-20.19L69.45-20.19 69.45-8.33Q69.45-4.17 72.63-3.08L72.63-3.08Q73.55-2.73 74.73-2.73 75.9-2.73 76.86-3.03 77.83-3.32 78.49-3.83L78.49-3.83Q79.83-4.88 79.83-6.49L79.83-6.49Q79.83-6.98 79.73-7.37ZM65.38-6.47L65.38-6.47Q65.72-6.74 65.72-7.08L65.72-7.08Q65.72-7.62 65.5-8.45L65.5-8.45Q64.5-12.28 64.5-13.78 64.5-15.28 64.59-16.13 64.69-16.97 64.86-17.82L64.86-17.82Q65.16-19.48 65.5-20.75L65.5-20.75Q65.72-21.58 65.72-21.88L65.72-21.88Q65.72-22.46 65.38-22.73L65.38-22.73Q64.35-21.51 63.81-19.46 63.28-17.41 62.93-15.84L62.93-15.84Q62.81-15.21 61.49-14.6L61.49-14.6Q62.81-13.99 62.93-13.35L62.93-13.35Q63.84-9.23 64.42-8.11 65.01-6.98 65.38-6.47ZM91.3-0.29L91.3-0.29Q90.18 0.49 88.75 0.49 87.32 0.49 86.63-0.15 85.93-0.78 85.93-1.37L85.93-1.37Q85.93-2.17 86.27-2.64L86.27-2.64Q86.81-2.22 87.64-2.22L87.64-2.22Q89.06-2.22 89.67-3.86L89.67-3.86 89.67-11.38Q89.67-12.6 89.2-13.04L89.2-13.04Q88.64-13.62 86.69-14.58L86.69-14.58Q88.4-15.36 88.86-15.82L88.86-15.82Q89.67-16.63 89.67-17.8L89.67-17.8 89.67-31.62Q89.67-34.4 87.39-34.4L87.39-34.4Q86.56-34.4 86.03-33.98L86.03-33.98Q85.69-34.45 85.69-34.95 85.69-35.45 85.94-35.91 86.2-36.38 86.71-36.77L86.71-36.77Q87.88-37.6 89.64-37.6 91.4-37.6 92.38-37.38L92.38-37.38Q93.72-39.06 95.4-39.06L95.4-39.06Q97.92-39.06 97.92-36.43L97.92-36.43 97.92-24.39Q100.29-28.81 105.66-28.81L105.66-28.81Q111.81-28.81 113.49-23.36L113.49-23.36Q114.03-21.63 114.03-19.43L114.03-19.43 114.03-17.8Q114.03-16.65 114.54-16.14L114.54-16.14Q115.3-15.38 117.01-14.6L117.01-14.6Q115.15-13.7 114.71-13.21L114.71-13.21Q114.03-12.45 114.03-11.38L114.03-11.38 114.03-3.74Q114.49-2.22 116.06-2.22L116.06-2.22Q116.89-2.22 117.42-2.64L117.42-2.64Q117.69-2.27 117.69-1.56 117.69-0.85 117.05-0.18 116.4 0.49 114.98 0.49 113.57 0.49 112.37-0.29L112.37-0.29Q111.27 0.49 109.89 0.49 108.51 0.49 107.49-0.24L107.49-0.24Q106.54 0.49 105.35 0.49 104.17 0.49 103.46-0.12 102.75-0.73 102.75-1.88L102.75-1.88Q102.75-2.42 103.12-2.73L103.12-2.73Q103.68-2.29 104.24-2.29L104.24-2.29Q105.31-2.29 105.78-3.49L105.78-3.49 105.78-18.04Q105.78-22.8 103.46-23.54L103.46-23.54Q102.73-23.78 101.87-23.78L101.87-23.78Q99.33-23.78 98.33-21.09L98.33-21.09Q98.01-20.26 97.92-19.29L97.92-19.29 97.92-3.49Q98.38-2.29 99.46-2.29L99.46-2.29Q100.02-2.29 100.58-2.73L100.58-2.73Q100.94-2.42 100.94-1.57 100.94-0.73 100.24-0.12 99.53 0.49 98.33 0.49 97.14 0.49 96.18-0.24L96.18-0.24Q95.18 0.49 93.82 0.49 92.45 0.49 91.3-0.29ZM91.96-8.08L91.96-6.49Q93.06-7.2 93.25-9.59L93.25-9.59Q93.33-10.64 93.35-11.94 93.38-13.23 93.39-13.78 93.4-14.33 93.4-14.6L93.4-14.6 93.4-16.8Q93.4-17.7 93.4-18.85L93.4-18.85 93.35-21.24Q93.3-27.71 93.13-28.44L93.13-28.44Q92.79-29.98 91.96-30.52L91.96-30.52 91.96-22.29Q91.96-17.24 91.85-16.66 91.74-16.09 91.67-15.82L91.67-15.82Q91.45-15.06 90.01-14.58L90.01-14.58Q91.47-14.06 91.67-13.35L91.67-13.35Q91.96-12.18 91.96-8.08L91.96-8.08ZM108.1-15.26L108.1-6.47Q109.32-6.93 109.47-9.67L109.47-9.67Q109.59-12.4 109.59-14.69 109.59-16.97 109.44-18.41 109.29-19.85 108.96-20.69 108.64-21.53 108.12-21.96 107.61-22.39 106.88-22.75L106.88-22.75Q107.81-20.56 107.95-18.75 108.1-16.94 108.1-15.26L108.1-15.26ZM127.43-32.3L127.43-32.3Q126.19-32.3 125.03-32.96 123.87-33.62 123.26-34.72L123.26-34.72Q122.6-35.84 121.5-36.43L121.5-36.43Q121.16-36.6 120.72-36.79L120.72-36.79 121.55-37.3Q122.72-38.04 123.28-39.09 123.84-40.14 124.98-40.73 126.11-41.33 127.43-41.33L127.43-41.33Q130.17-41.33 131.39-39.04L131.39-39.04Q132.22-37.52 133.95-36.79L133.95-36.79Q133.58-36.57 133.23-36.4 132.88-36.23 132.56-36.01L132.56-36.01Q131.85-35.52 131.3-34.57 130.75-33.62 129.71-32.96 128.68-32.3 127.43-32.3ZM126.14-35.29Q125.99-35.55 125.91-35.9 125.82-36.25 125.82-37.16 125.82-38.06 126.75-39.45L126.75-39.45Q125.84-39.45 125.48-39.12 125.11-38.79 124.93-38.56 124.75-38.33 124.61-38.1 124.48-37.87 124.28-37.6L124.28-37.6Q123.82-36.94 123.53-36.79L123.53-36.79Q123.92-36.57 124.25-36.1 124.57-35.62 125.01-35.11L125.01-35.11Q125.67-34.3 126.75-34.3L126.75-34.3Q126.6-34.57 126.44-34.8 126.28-35.03 126.14-35.29ZM124.99-0.29L124.99-0.29Q123.87 0.49 122.44 0.49 121.01 0.49 120.31-0.15 119.62-0.78 119.62-1.37L119.62-1.37Q119.62-2.17 119.96-2.64L119.96-2.64Q120.5-2.22 121.55-2.22 122.6-2.22 123.35-3.59L123.35-3.59 123.35-11.38Q123.35-12.45 122.91-12.94L122.91-12.94Q122.21-13.67 120.38-14.58L120.38-14.58Q122.08-15.36 122.55-15.82L122.55-15.82Q123.35-16.63 123.35-17.8L123.35-17.8 123.35-21.36Q123.35-23.44 121.94-23.61L121.94-23.61Q121.52-23.66 120.89-23.66 120.25-23.66 119.72-23.24L119.72-23.24Q119.37-23.71 119.37-24.21 119.37-24.71 119.63-25.33 119.89-25.95 120.42-26.51L120.42-26.51Q121.69-27.83 123.35-27.83 125.01-27.83 126.36-27.25L126.36-27.25Q127.55-28.81 129.09-28.81L129.09-28.81Q131.61-28.81 131.61-26.17L131.61-26.17 131.61-17.8Q131.61-16.63 132.12-16.11L132.12-16.11Q132.88-15.36 134.58-14.58L134.58-14.58Q132.75-13.67 132.29-13.21L132.29-13.21Q131.61-12.45 131.61-11.38L131.61-11.38 131.61-3.52Q132.41-2.22 133.44-2.22 134.46-2.22 135-2.64L135-2.64Q135.34-2.17 135.34-1.48 135.34-0.78 134.65-0.15 133.95 0.49 132.56 0.49 131.17 0.49 129.97-0.29L129.97-0.29Q128.97 0.49 127.55 0.49 126.14 0.49 124.99-0.29ZM127.1-11.87Q127.11-12.7 127.13-13.26 127.14-13.82 127.14-14.16L127.14-14.16 127.14-14.82Q127.14-15.19 127.13-15.77 127.11-16.36 127.1-17.07 127.09-17.77 127.07-18.46L127.07-18.46Q126.97-20.14 126.82-20.78L126.82-20.78Q126.53-22.19 125.7-22.73L125.7-22.73 125.7-21.14Q125.7-17.02 125.51-16.3 125.33-15.58 124.93-15.22 124.53-14.87 123.74-14.6L123.74-14.6Q125.21-14.09 125.41-13.35L125.41-13.35Q125.7-12.18 125.7-8.06L125.7-8.06 125.7-6.47Q126.82-7.2 126.97-9.47L126.97-9.47Q127.09-11.04 127.1-11.87ZM142.54-0.29L142.54-0.29Q141.42 0.49 139.98 0.49 138.54 0.49 137.89-0.18 137.24-0.85 137.24-1.46L137.24-1.46Q137.24-2.27 137.51-2.64L137.51-2.64Q138.05-2.22 138.88-2.22L138.88-2.22Q140.44-2.22 140.91-3.74L140.91-3.74 140.91-11.33Q140.91-12.4 140.44-12.89L140.44-12.89Q139.73-13.7 137.93-14.58L137.93-14.58Q139.64-15.36 140.1-15.82L140.1-15.82Q140.91-16.63 140.91-17.8L140.91-17.8 140.91-21.36Q140.91-23.44 139.49-23.61L139.49-23.61Q139.07-23.66 138.44-23.66 137.8-23.66 137.27-23.24L137.27-23.24Q136.93-23.71 136.93-24.21 136.93-24.71 137.18-25.33 137.44-25.95 137.95-26.51L137.95-26.51Q139.25-27.83 140.94-27.83 142.64-27.83 143.76-27.29L143.76-27.29Q145.1-28.81 146.5-28.81 147.89-28.81 148.43-28.16 148.96-27.51 148.96-26.17L148.96-26.17 148.96-23.88Q150.23-26.15 152.43-27.48 154.63-28.81 157.09-28.81 159.56-28.81 161.06-28.16 162.56-27.51 163.54-26.32L163.54-26.32Q165.44-23.95 165.44-19.43L165.44-19.43 165.44-17.82Q165.44-16.65 165.95-16.14L165.95-16.14Q166.71-15.36 168.42-14.58L168.42-14.58Q166.59-13.67 166.13-13.21L166.13-13.21Q165.44-12.45 165.44-11.38L165.44-11.38 165.44-3.74Q165.91-2.22 167.47-2.22L167.47-2.22Q168.3-2.22 168.84-2.64L168.84-2.64Q169.1-2.27 169.1-1.56 169.1-0.85 168.46-0.18 167.81 0.49 166.47 0.49 165.12 0.49 164.03-0.27L164.03-0.27Q163.05 0.49 161.74 0.49 160.44 0.49 159.41-0.24L159.41-0.24Q158.34 0.49 157.12 0.49 155.9 0.49 155.19-0.12 154.48-0.73 154.48-1.88L154.48-1.88Q154.48-2.42 154.85-2.73L154.85-2.73Q155.41-2.29 155.97-2.29L155.97-2.29Q157.04-2.29 157.51-3.49L157.51-3.49 157.51-18.04Q157.51-22.78 155.19-23.54L155.19-23.54Q154.43-23.78 153.55-23.78 152.67-23.78 151.92-23.43 151.16-23.07 150.55-22.44L150.55-22.44Q149.21-21.02 148.96-19.07L148.96-19.07 148.96-3.49Q149.43-2.29 150.5-2.29L150.5-2.29Q151.06-2.29 151.62-2.73L151.62-2.73Q151.99-2.42 151.99-1.57 151.99-0.73 151.28-0.12 150.57 0.49 149.41 0.49 148.25 0.49 147.3-0.24L147.3-0.24Q146.37 0.49 145.03 0.49 143.69 0.49 142.54-0.29ZM159.85-15.77L159.85-6.47Q161.07-6.93 161.19-9.67L161.19-9.67Q161.34-12.4 161.34-14.82 161.34-17.24 161.14-18.81 160.95-20.39 160.58-21.28 160.22-22.17 159.72-22.57 159.22-22.97 158.63-23.27L158.63-23.27Q159.56-21.07 159.7-19.26 159.85-17.46 159.85-15.77L159.85-15.77ZM144.65-11.87Q144.67-12.67 144.68-13.22 144.69-13.77 144.69-14.11 144.69-14.45 144.69-14.81 144.69-15.16 144.68-15.75 144.67-16.33 144.65-17.04 144.64-17.75 144.59-18.43L144.59-18.43Q144.52-20.12 144.37-20.75L144.37-20.75Q144.08-22.17 143.25-22.71L143.25-22.71 143.25-21.12Q143.25-17.02 143.07-16.3 142.88-15.58 142.48-15.21 142.08-14.84 141.3-14.58L141.3-14.58Q142.76-14.06 142.96-13.35L142.96-13.35Q143.25-12.18 143.25-8.08L143.25-8.08 143.25-6.49Q144.37-7.23 144.54-9.47L144.54-9.47Q144.64-11.06 144.65-11.87Z" opacity="1" transform="matrix(1,0,0,1,0,0)" fill="#bb84e8" class="wordmark-text-0" data-fill-palette-color="primary" id="text-0"></path></svg></g></svg></g></svg></g></svg></g><g></g></svg></g><defs></defs></svg><rect width="395.52" height="100.19454784514244" fill="none" stroke="none" visibility="hidden"></rect></g></svg></g></svg>